<svg width="200" height="65" viewBox="0 0 200 65" fill="none" xmlns="http://www.w3.org/2000/svg">
<g clip-path="url(#clip0_648_1158)">
<path d="M198.673 57.3692C198.673 58.1827 198.526 58.9882 198.241 59.7397C197.955 60.4913 197.536 61.174 197.008 61.7489C196.481 62.3239 195.854 62.7797 195.165 63.0905C194.475 63.4012 193.736 63.5607 192.99 63.5599H7.0097C5.50232 63.5616 4.05603 62.9104 2.9889 61.7494C1.92177 60.5885 1.32118 59.0129 1.31921 57.3692V8.00057C1.32118 6.3561 1.92153 4.77969 2.98845 3.61747C4.05536 2.45526 5.50164 1.80225 7.0097 1.80182H192.989C193.735 1.80182 194.474 1.96217 195.164 2.2737C195.854 2.58524 196.48 3.04186 197.008 3.61749C197.536 4.19312 197.954 4.87648 198.24 5.62854C198.525 6.38059 198.672 7.18662 198.672 8.00057L198.673 57.3692Z" fill="white"/>
<path d="M192.992 64H7.00977C5.15284 63.9996 3.3719 63.2038 2.05773 61.7873C0.743573 60.3708 0.00353324 58.4493 0 56.4443L0 7.56368C0.00274706 5.55775 0.742298 3.63489 2.05642 2.21693C3.37054 0.798969 5.15191 0.00169308 7.00977 0L192.99 0C194.848 0.00253789 196.629 0.800086 197.943 2.21786C199.257 3.63564 199.996 5.55801 200 7.56368V56.4443C200.003 60.6119 196.853 64 192.992 64Z" fill="#A6A6A6"/>
<path d="M199 56.7851C199 57.6018 198.852 58.4105 198.566 59.1649C198.279 59.9194 197.859 60.6048 197.33 61.182C196.8 61.7592 196.172 62.2168 195.48 62.5288C194.788 62.8407 194.047 63.0009 193.298 63H6.70911C5.19679 63.0017 3.74577 62.348 2.67515 61.1825C1.60452 60.017 1.00197 58.4352 1 56.7851V7.22304C1.00197 5.57212 1.60429 3.98953 2.67469 2.82277C3.7451 1.656 5.19611 1.00043 6.70911 1H193.297C194.046 1 194.787 1.16098 195.479 1.47373C196.171 1.78649 196.8 2.2449 197.329 2.82279C197.859 3.40067 198.278 4.08671 198.565 4.84171C198.851 5.59671 198.999 6.4059 198.999 7.22304L199 56.7851Z" fill="black"/>
<path d="M44.6583 32.3414C44.6153 27.1318 48.57 24.5974 48.7509 24.4794C46.5112 20.9185 43.0396 20.432 41.8197 20.3932C38.9041 20.0586 36.0759 22.2956 34.5906 22.2956C33.0757 22.2956 30.7886 20.4255 28.3235 20.4805C25.1515 20.5338 22.1839 22.5365 20.5564 25.6464C17.1975 31.9874 19.7026 41.3057 22.9206 46.4312C24.5304 48.943 26.4114 51.7442 28.8735 51.6456C31.2822 51.5389 32.1819 49.9726 35.0887 49.9726C37.9688 49.9726 38.8137 51.6456 41.3246 51.5825C43.9097 51.5389 45.5373 49.061 47.0907 46.5282C48.951 43.6527 49.6981 40.8176 49.7277 40.6721C49.6684 40.6495 44.7087 38.5837 44.6583 32.3414ZM39.915 17.0215C41.2105 15.2548 42.0969 12.8512 41.8509 10.4121C39.9758 10.5027 37.6308 11.8265 36.2804 13.5544C35.0857 15.077 34.0185 17.5726 34.2942 19.9196C36.4005 20.0909 38.5632 18.7607 39.915 17.0215Z" fill="white"/>
<path d="M192.966 0H93L132.155 65H192.966C194.83 64.9983 196.617 64.189 197.935 62.7496C199.254 61.3102 199.996 59.3581 200 57.3214V7.68186C199.997 5.64472 199.255 3.69207 197.936 2.25204C196.617 0.81202 194.83 0.00214871 192.966 0Z" fill="url(#paint0_linear_648_1158)"/>
<path d="M79.5468 51.2852H76.1805L74.3365 44.9668H67.9271L66.1706 51.2852H62.8933L69.2449 29.7746H73.167L79.5468 51.2852ZM73.7807 42.316L72.1131 36.6991C71.9367 36.1253 71.6047 34.774 71.1185 32.6469H71.0592C70.8635 33.5617 70.5508 34.913 70.1224 36.6991L68.483 42.316H73.7807ZM95.8489 43.3391C95.8489 45.977 95.1923 48.0621 93.8775 49.5928C92.7005 50.9554 91.2375 51.6359 89.4929 51.6359C87.6089 51.6359 86.2541 50.9037 85.4314 49.4361V57.5744H82.2712V40.8726C82.2712 39.2158 82.2312 37.517 82.1541 35.7745H84.9334L85.1098 38.233H85.1691C86.223 36.3807 87.8223 35.4545 89.9687 35.4545C91.6466 35.4545 93.0474 36.177 94.168 37.6237C95.2871 39.0735 95.8489 40.9776 95.8489 43.3391ZM92.6294 43.4652C92.6294 41.9555 92.3181 40.7109 91.6926 39.7298C91.0093 38.7099 90.0917 38.1991 88.9415 38.1991C88.1618 38.1991 87.4533 38.4836 86.8203 39.0444C86.1859 39.6102 85.7709 40.3489 85.5767 41.2637C85.49 41.6059 85.4407 41.958 85.4299 42.3127V44.9005C85.4299 46.0271 85.7472 46.9792 86.3816 47.7583C87.016 48.5341 87.8401 48.9237 88.854 48.9237C90.0443 48.9237 90.9707 48.421 91.6333 47.4237C92.2974 46.4231 92.6294 45.1042 92.6294 43.4652ZM112.209 43.3391C112.209 45.977 111.552 48.0621 110.237 49.5928C109.059 50.9554 107.597 51.6359 105.851 51.6359C103.967 51.6359 102.613 50.9037 101.79 49.4361V57.5744H98.6297V40.8726C98.6297 39.2158 98.5897 37.517 98.5126 35.7745H101.292L101.468 38.233H101.528C102.58 36.3807 104.179 35.4545 106.327 35.4545C108.004 35.4545 109.404 36.177 110.528 37.6237C111.646 39.0735 112.209 40.9776 112.209 43.3391ZM108.988 43.4652C108.988 41.9555 108.675 40.7109 108.05 39.7298C107.366 38.7099 106.452 38.1991 105.301 38.1991C104.522 38.1991 103.813 38.4836 103.177 39.0444C102.543 39.6102 102.129 40.3489 101.935 41.2637C101.839 41.6904 101.787 42.038 101.787 42.3127V44.9005C101.787 46.0271 102.106 46.9792 102.737 47.7583C103.371 48.5325 104.196 48.9237 105.212 48.9237C106.404 48.9237 107.331 48.421 107.992 47.4237C108.656 46.4231 108.988 45.1042 108.988 43.4652ZM130.5 45.2513C130.5 47.0826 129.913 48.5713 128.747 49.7205C127.463 50.9748 125.671 51.6036 123.373 51.6036C121.251 51.6036 119.549 51.1575 118.265 50.2636L118.996 47.3913C120.382 48.2868 121.904 48.7329 123.562 48.7329C124.753 48.7329 125.68 48.4388 126.341 47.8552C127.004 47.2701 127.339 46.4878 127.339 45.5115C127.339 44.6371 127.061 43.9049 126.517 43.3084C125.97 42.7136 125.066 42.1592 123.796 41.65C120.342 40.2454 118.614 38.191 118.614 35.4884C118.614 33.7234 119.225 32.2783 120.443 31.1485C121.661 30.0203 123.277 29.4562 125.287 29.4562C127.082 29.4562 128.578 29.7972 129.765 30.4777L128.972 33.287C127.854 32.6275 126.593 32.2977 125.182 32.2977C124.067 32.2977 123.193 32.5968 122.567 33.1916C122.041 33.7234 121.774 34.3715 121.774 35.1409C121.774 35.9895 122.078 36.6943 122.683 37.2471C123.207 37.7562 124.165 38.3106 125.549 38.9054C127.248 39.6522 128.496 40.5218 129.295 41.5207C130.1 42.5196 130.5 43.7658 130.5 45.2513ZM140.976 38.3607H137.492V45.8914C137.492 47.8068 138.106 48.762 139.336 48.762C139.901 48.762 140.369 48.7103 140.74 48.602L140.827 51.2189C140.205 51.4727 139.385 51.6004 138.37 51.6004C137.122 51.6004 136.146 51.185 135.442 50.3541C134.741 49.5233 134.388 48.1316 134.388 46.1726V38.3543H132.313V35.7681H134.388V32.9281L137.492 31.9066V35.7681H140.976V38.3607ZM156.661 43.4022C156.661 45.7863 156.036 47.7437 154.787 49.2744C153.482 50.8504 151.744 51.6359 149.579 51.6359C147.489 51.6359 145.827 50.8811 144.588 49.373C143.349 47.8617 142.729 45.9576 142.729 43.6608C142.729 41.2573 143.369 39.2885 144.646 37.7578C145.925 36.2255 147.647 35.4594 149.813 35.4594C151.9 35.4594 153.576 36.2158 154.845 37.7255C156.058 39.1899 156.661 41.0811 156.661 43.4022ZM153.385 43.4814C153.385 42.0606 153.104 40.8418 152.539 39.8219C151.876 38.5902 150.928 37.9744 149.699 37.9744C148.433 37.9744 147.462 38.5902 146.801 39.8219C146.235 40.8418 145.953 42.0816 145.953 43.546C145.953 44.9684 146.235 46.1904 146.801 47.2071C147.484 48.4388 148.437 49.0546 149.672 49.0546C150.88 49.0546 151.827 48.4258 152.512 47.1764C153.093 46.1322 153.385 44.9054 153.385 43.4814ZM166.938 38.8052C166.609 38.7405 166.276 38.7086 165.942 38.7099C164.83 38.7099 163.97 39.1657 163.365 40.0838C162.841 40.892 162.577 41.9135 162.577 43.1468V51.2852H159.417V40.6592C159.419 39.031 159.389 37.4029 159.325 35.7762H162.077L162.193 38.7438H162.28C162.615 37.7239 163.14 36.9011 163.861 36.2853C164.52 35.7472 165.321 35.4558 166.145 35.4545C166.437 35.4545 166.701 35.4771 166.935 35.5175L166.938 38.8052ZM181.071 42.796C181.079 43.3199 181.041 43.8434 180.956 44.3591H171.475C171.511 45.8914 171.97 47.0648 172.851 47.873C173.65 48.5939 174.683 48.956 175.951 48.956C177.355 48.956 178.636 48.7135 179.788 48.2238L180.283 50.6144C178.937 51.2545 177.348 51.5729 175.514 51.5729C173.309 51.5729 171.577 50.8649 170.317 49.4522C169.06 48.0379 168.43 46.1371 168.43 43.7561C168.43 41.4189 169.016 39.4712 170.188 37.9178C171.416 36.2595 173.074 35.4303 175.161 35.4303C177.211 35.4303 178.763 36.2595 179.817 37.9178C180.652 39.2319 181.071 40.8612 181.071 42.796ZM178.058 41.9022C178.08 40.879 177.873 39.9981 177.444 39.253C176.897 38.2928 176.055 37.8144 174.927 37.8144C173.894 37.8144 173.052 38.2815 172.412 39.219C171.886 39.9642 171.573 40.8596 171.476 41.8989L178.058 41.9022Z" fill="white"/>
<path d="M67.0155 22.1696C66.1365 22.1696 65.3761 22.1227 64.7432 22.0435V11.6438C65.6284 11.4947 66.523 11.4212 67.4187 11.424C71.0429 11.424 72.7119 13.3685 72.7119 16.5382C72.7119 20.1944 70.7405 22.1696 67.0155 22.1696ZM67.5462 12.7575C67.057 12.7575 66.6405 12.7898 66.2951 12.8674V20.7731C66.4819 20.8054 66.8406 20.8199 67.3446 20.8199C69.7192 20.8199 71.071 19.3458 71.071 16.5851C71.071 14.1233 69.8481 12.7575 67.5462 12.7575ZM77.9132 22.2488C75.8707 22.2488 74.547 20.5856 74.547 18.3275C74.547 15.9741 75.8988 14.2963 78.0289 14.2963C80.0418 14.2963 81.3951 15.8803 81.3951 18.203C81.3951 20.5856 80.0003 22.2488 77.9132 22.2488ZM77.9725 15.5344C76.8504 15.5344 76.1315 16.6788 76.1315 18.279C76.1315 19.8485 76.8653 20.9929 77.9577 20.9929C79.0502 20.9929 79.7839 19.7693 79.7839 18.2467C79.7839 16.695 79.065 15.5344 77.9725 15.5344ZM93.0429 14.4531L90.8565 22.0758H89.4321L88.5264 18.7655C88.3012 17.9558 88.1137 17.1342 87.9646 16.3038H87.935C87.8208 17.1346 87.6044 17.967 87.3747 18.7655L86.4112 22.0758H84.9719L82.9145 14.4531H84.5109L85.3024 18.077C85.4892 18.9401 85.6463 19.7547 85.7768 20.5241H85.8064C85.9205 19.8824 86.1073 19.0807 86.3815 18.0931L87.3747 14.4547H88.6405L89.5907 18.0155C89.8204 18.8787 90.0072 19.7257 90.1525 20.5258H90.194C90.2948 19.7418 90.4534 18.9094 90.6683 18.0155L91.5176 14.4547L93.0429 14.4531ZM101.092 22.0758H99.5383V17.6987C99.5383 16.3507 99.0639 15.675 98.1286 15.675C97.2081 15.675 96.5752 16.5382 96.5752 17.5419V22.0758H95.0218V16.6319C95.0218 15.9579 95.0069 15.2354 94.9639 14.4515H96.3306L96.4032 15.6282H96.4462C96.8642 14.8135 97.7121 14.2963 98.6622 14.2963C100.13 14.2963 101.093 15.5199 101.093 17.5112L101.092 22.0758ZM105.375 22.0758H103.821V10.9553H105.375V22.0758ZM111.039 22.2488C108.998 22.2488 107.673 20.5856 107.673 18.3275C107.673 15.9741 109.025 14.2963 111.153 14.2963C113.168 14.2963 114.52 15.8803 114.52 18.203C114.521 20.5856 113.125 22.2488 111.039 22.2488ZM111.097 15.5344C109.975 15.5344 109.256 16.6788 109.256 18.279C109.256 19.8485 109.991 20.9929 111.081 20.9929C112.175 20.9929 112.907 19.7693 112.907 18.2467C112.908 16.695 112.191 15.5344 111.097 15.5344ZM120.644 22.0758L120.532 21.1982H120.49C120.016 21.9045 119.324 22.2488 118.446 22.2488C117.194 22.2488 116.304 21.2919 116.304 20.0053C116.304 18.1238 117.8 17.1508 120.39 17.1508V17.0102C120.39 16.0064 119.902 15.5037 118.938 15.5037C118.249 15.5037 117.644 15.6928 117.112 16.0694L116.796 14.9558C117.443 14.5161 118.249 14.2963 119.196 14.2963C121.022 14.2963 121.944 15.3469 121.944 17.4498V20.2574C121.944 21.0268 121.976 21.6233 122.045 22.0775L120.644 22.0758ZM120.431 18.279C118.706 18.279 117.84 18.7348 117.84 19.8162C117.84 20.6163 118.286 21.0074 118.906 21.0074C119.696 21.0074 120.431 20.3496 120.431 19.4557V18.279ZM129.488 22.0758L129.415 20.8523H129.372C128.926 21.7768 128.176 22.2488 127.128 22.2488C125.443 22.2488 124.195 20.6324 124.195 18.3582C124.195 15.9741 125.489 14.2947 127.255 14.2947C128.191 14.2947 128.853 14.639 129.227 15.3308H129.258V10.9553H130.813V20.0214C130.813 20.7585 130.829 21.4487 130.871 22.0758H129.488ZM129.258 17.5904C129.258 16.5236 128.61 15.6136 127.622 15.6136C126.47 15.6136 125.766 16.7273 125.766 18.2952C125.766 19.8323 126.497 20.8846 127.59 20.8846C128.567 20.8846 129.258 19.9584 129.258 18.8609V17.5904ZM140.672 22.2488C138.631 22.2488 137.307 20.5856 137.307 18.3275C137.307 15.9741 138.659 14.2963 140.787 14.2963C142.802 14.2963 144.154 15.8803 144.154 18.203C144.155 20.5856 142.76 22.2488 140.672 22.2488ZM140.729 15.5344C139.609 15.5344 138.89 16.6788 138.89 18.279C138.89 19.8485 139.624 20.9929 140.715 20.9929C141.809 20.9929 142.541 19.7693 142.541 18.2467C142.544 16.695 141.825 15.5344 140.729 15.5344ZM152.508 22.0758H150.953V17.6987C150.953 16.3507 150.478 15.675 149.543 15.675C148.623 15.675 147.991 16.5382 147.991 17.5419V22.0758H146.436V16.6319C146.436 15.9579 146.421 15.2354 146.378 14.4515H147.745L147.818 15.6282H147.861C148.277 14.8135 149.127 14.2947 150.075 14.2947C151.543 14.2947 152.508 15.5183 152.508 17.5096V22.0758ZM162.959 15.7235H161.25V19.425C161.25 20.3673 161.55 20.8377 162.154 20.8377C162.429 20.8377 162.658 20.8054 162.844 20.7585L162.887 22.0451C162.586 22.1712 162.183 22.2342 161.681 22.2342C160.457 22.2342 159.725 21.4972 159.725 19.5672V15.7235H158.705V14.4531H159.725V13.0565L161.25 12.5538V14.4515H162.959V15.7235ZM171.183 22.0758H169.631V17.7311C169.631 16.3668 169.158 15.6767 168.221 15.6767C167.416 15.6767 166.666 16.2731 166.666 17.4805V22.0758H165.114V10.9553H166.666V15.5344H166.698C167.187 14.7036 167.895 14.2947 168.799 14.2947C170.279 14.2947 171.183 15.549 171.183 17.5419V22.0758ZM179.608 18.6718H174.946C174.976 20.1152 175.852 20.9298 177.149 20.9298C177.838 20.9298 178.473 20.8038 179.033 20.5694L179.275 21.7461C178.614 22.0597 177.835 22.2165 176.93 22.2165C174.743 22.2165 173.449 20.71 173.449 18.3744C173.449 16.0371 174.775 14.2801 176.755 14.2801C178.541 14.2801 179.662 15.7235 179.662 17.904C179.672 18.1613 179.654 18.419 179.608 18.6718ZM178.184 17.4644C178.184 16.2876 177.64 15.4568 176.647 15.4568C175.754 15.4568 175.049 16.3038 174.948 17.4644H178.184Z" fill="white"/>
</g>
<defs>
<linearGradient id="paint0_linear_648_1158" x1="146.498" y1="65.1726" x2="146.498" y2="-169.249" gradientUnits="userSpaceOnUse">
<stop stop-color="#1A1A1A" stop-opacity="0.1"/>
<stop offset="0.123" stop-color="#212121" stop-opacity="0.151"/>
<stop offset="0.308" stop-color="#353535" stop-opacity="0.227"/>
<stop offset="0.532" stop-color="#575757" stop-opacity="0.318"/>
<stop offset="0.783" stop-color="#858585" stop-opacity="0.421"/>
<stop offset="1" stop-color="#B3B3B3" stop-opacity="0.51"/>
</linearGradient>
<clipPath id="clip0_648_1158">
<rect width="200" height="65" fill="white"/>
</clipPath>
</defs>
</svg>
