<svg width="200" height="65" viewBox="0 0 200 65" fill="none" xmlns="http://www.w3.org/2000/svg">
<g clip-path="url(#clip0_648_1137)">
<path d="M199.5 56.4996V56.5812C199.456 61.1155 195.742 64.7843 191.161 64.7843H8.84101C4.23224 64.7847 0.5 61.0716 0.5 56.4996V9.06824C0.5 4.49703 4.23218 0.784302 8.84101 0.784302H191.161C195.769 0.784302 199.5 4.49691 199.5 9.06824V56.4996Z" fill="black" stroke="#989898"/>
<mask id="mask0_648_1137" style="mask-type:luminance" maskUnits="userSpaceOnUse" x="15" y="13" width="38" height="43">
<path d="M43.3425 28.6452L34.3244 23.5177C34.3244 23.5177 17.8952 14.1748 16.9294 13.6257C15.9635 13.0765 15.0012 13.4092 15.0012 14.5568V54.8577C15.0012 55.718 15.689 56.0888 16.5281 55.6121C17.3669 55.1346 34.3244 45.4921 34.3244 45.4921L43.3421 40.3649C43.3421 40.3649 50.9936 36.0145 52.0106 35.4364C53.0277 34.8576 52.93 34.0643 52.0717 33.6092C51.2138 33.1536 43.3425 28.6452 43.3425 28.6452V28.6452Z" fill="white"/>
</mask>
<g mask="url(#mask0_648_1137)">
<path d="M15.0016 12.6887V56.3214L37.3422 34.5053L15.0016 12.6887Z" fill="url(#paint0_linear_648_1137)"/>
</g>
<mask id="mask1_648_1137" style="mask-type:luminance" maskUnits="userSpaceOnUse" x="15" y="13" width="38" height="43">
<path d="M43.3425 28.6452L34.3244 23.5177C34.3244 23.5177 17.8952 14.1748 16.9294 13.6257C15.9635 13.0765 15.0012 13.4092 15.0012 14.5568V54.8577C15.0012 55.718 15.689 56.0888 16.5281 55.6121C17.3669 55.1346 34.3244 45.4921 34.3244 45.4921L43.3421 40.3649C43.3421 40.3649 50.9936 36.0145 52.0106 35.4364C53.0277 34.8576 52.93 34.0643 52.0717 33.6092C51.2138 33.1536 43.3425 28.6452 43.3425 28.6452V28.6452Z" fill="white"/>
</mask>
<g mask="url(#mask1_648_1137)">
<path d="M43.3425 28.6452L34.3243 23.5176L15.0016 12.53V12.6887L37.3422 34.5052L43.3425 28.6452Z" fill="url(#paint1_linear_648_1137)"/>
</g>
<mask id="mask2_648_1137" style="mask-type:luminance" maskUnits="userSpaceOnUse" x="15" y="13" width="38" height="43">
<path d="M43.3425 28.6452L34.3244 23.5177C34.3244 23.5177 17.8952 14.1748 16.9294 13.6257C15.9635 13.0765 15.0012 13.4092 15.0012 14.5568V54.8577C15.0012 55.718 15.689 56.0888 16.5281 55.6121C17.3669 55.1346 34.3244 45.4921 34.3244 45.4921L43.3421 40.3649C43.3421 40.3649 50.9936 36.0145 52.0106 35.4364C53.0277 34.8576 52.93 34.0643 52.0717 33.6092C51.2138 33.1536 43.3425 28.6452 43.3425 28.6452V28.6452Z" fill="white"/>
</mask>
<g mask="url(#mask2_648_1137)">
<path d="M15.0016 56.3214V56.4801L34.3243 45.4921L43.3421 40.3645L37.3422 34.5052L15.0016 56.3214Z" fill="url(#paint2_linear_648_1137)"/>
</g>
<mask id="mask3_648_1137" style="mask-type:luminance" maskUnits="userSpaceOnUse" x="15" y="13" width="38" height="43">
<path d="M43.3425 28.6452L34.3244 23.5177C34.3244 23.5177 17.8952 14.1748 16.9294 13.6257C15.9635 13.0765 15.0012 13.4092 15.0012 14.5568V54.8577C15.0012 55.718 15.689 56.0888 16.5281 55.6121C17.3669 55.1346 34.3244 45.4921 34.3244 45.4921L43.3421 40.3649C43.3421 40.3649 50.9936 36.0145 52.0106 35.4364C53.0277 34.8576 52.93 34.0643 52.0717 33.6092C51.2138 33.1536 43.3425 28.6452 43.3425 28.6452V28.6452Z" fill="white"/>
</mask>
<g mask="url(#mask3_648_1137)">
<path d="M43.3425 28.6452L37.3423 34.5052L43.3421 40.3645L53.6483 34.5048L43.3425 28.6452Z" fill="url(#paint3_linear_648_1137)"/>
</g>
<path d="M155.65 43.0344C154.81 43.0344 154.045 42.8819 153.351 42.5773C152.658 42.2723 152.076 41.8032 151.605 41.1709H151.464C151.558 41.9118 151.605 42.6143 151.605 43.2778V48.4993H149.655V30.1136H151.241L151.511 31.8504H151.605C152.107 31.1553 152.691 30.6543 153.357 30.3454C154.023 30.0366 154.788 29.8821 155.649 29.8821C157.358 29.8821 158.677 30.4575 159.605 31.6074C160.534 32.7573 160.998 34.3708 160.998 36.4465C160.998 38.5307 160.526 40.1492 159.582 41.3041C158.638 42.4579 157.327 43.0344 155.65 43.0344ZM155.367 31.5146C154.051 31.5146 153.098 31.8739 152.511 32.5913C151.923 33.3091 151.621 34.4517 151.605 36.0187V36.4465C151.605 38.2299 151.907 39.5053 152.511 40.2736C153.114 41.0419 154.083 41.4251 155.414 41.4251C156.528 41.4251 157.4 40.9818 158.031 40.0942C158.661 39.2069 158.977 37.9835 158.977 36.4234C158.977 34.8418 158.661 33.6272 158.031 32.7823C157.4 31.9366 156.512 31.5146 155.367 31.5146ZM165.517 42.8025H163.566V24.7877H165.517V42.8025ZM176.737 42.8025L176.348 40.9965H176.254C175.612 41.7921 174.971 42.3308 174.332 42.6115C173.694 42.8938 172.896 43.0344 171.94 43.0344C170.663 43.0344 169.662 42.7102 168.936 42.062C168.211 41.4139 167.849 40.492 167.849 39.2951C167.849 36.733 169.93 35.3898 174.091 35.2658L176.279 35.1961V34.409C176.279 33.4131 176.061 32.6776 175.626 32.2035C175.191 31.7283 174.494 31.4911 173.539 31.4911C172.465 31.4911 171.25 31.8153 169.895 32.4634L169.295 30.9931C169.93 30.6535 170.625 30.3874 171.382 30.1945C172.139 30.0015 172.896 29.9049 173.657 29.9049C175.193 29.9049 176.331 30.2403 177.072 30.9119C177.812 31.5835 178.183 32.6602 178.183 34.1425V42.8022H176.737L176.737 42.8025ZM172.328 41.4485C173.542 41.4485 174.496 41.1204 175.19 40.4646C175.883 39.8088 176.231 38.89 176.231 37.7085V36.5624L174.279 36.6429C172.727 36.698 171.609 36.9344 170.922 37.3561C170.237 37.7766 169.894 38.4309 169.894 39.3186C169.894 40.0129 170.107 40.542 170.535 40.904C170.962 41.2672 171.559 41.4485 172.328 41.4485ZM179.315 30.1136H181.407L184.229 37.3499C184.848 39.002 185.232 40.1943 185.382 40.9279H185.476C185.578 40.5335 185.791 39.8608 186.116 38.9065C186.441 37.953 187.506 35.0228 189.307 30.1136H191.401L185.863 44.5628C185.315 45.9908 184.674 47.0039 183.941 47.6031C183.208 48.2008 182.309 48.4993 181.244 48.4993C180.648 48.4993 180.06 48.4338 179.48 48.3029V46.7632C179.91 46.8557 180.393 46.9023 180.926 46.9023C182.266 46.9023 183.222 46.1613 183.794 44.6791L184.511 42.8734L179.315 30.1136ZM119.5 31.2928C120.119 31.7976 121.413 32.8581 121.413 34.8765C121.413 36.8393 120.281 37.7701 119.149 38.6446C118.798 38.9893 118.394 39.3621 118.394 39.9466C118.394 40.5293 118.798 40.8482 119.096 41.0873L120.066 41.829C121.252 42.8114 122.329 43.7144 122.329 45.5463C122.329 48.041 119.876 50.5615 115.242 50.5615C111.333 50.5615 109.448 48.7307 109.448 46.7656C109.448 45.8105 109.931 44.4577 111.523 43.5277C113.193 42.5191 115.458 42.3878 116.67 42.3062C116.292 41.829 115.861 41.3245 115.861 40.5031C115.861 40.0526 115.997 39.7868 116.131 39.4668C115.833 39.4938 115.537 39.5204 115.268 39.5204C112.412 39.5204 110.795 37.4235 110.795 35.3544C110.795 34.1332 111.362 32.7788 112.519 31.798C114.056 30.5507 115.888 30.3377 117.345 30.3377H122.895L121.17 31.2931H119.5L119.5 31.2928ZM117.586 43.0775C117.37 43.0498 117.235 43.0498 116.967 43.0498C116.724 43.0498 115.267 43.1041 114.137 43.4765C113.544 43.6871 111.819 44.3241 111.819 46.2095C111.819 48.093 113.679 49.4486 116.563 49.4486C119.148 49.4486 120.524 48.2251 120.524 46.5811C120.524 45.2248 119.635 44.5112 117.586 43.0775ZM118.368 38.0339C118.987 37.4227 119.04 36.5744 119.04 36.0961C119.04 34.1856 117.882 31.213 115.646 31.213C114.944 31.213 114.19 31.5577 113.759 32.0891C113.301 32.6464 113.165 33.3623 113.165 34.0531C113.165 35.8311 114.216 38.7775 116.535 38.7775C117.209 38.7775 117.935 38.459 118.368 38.0339ZM102.534 42.6527C98.2565 42.6527 95.9694 39.3667 95.9694 36.3984C95.9694 32.9267 98.8477 29.9603 102.939 29.9603C106.892 29.9603 109.368 33.0064 109.368 36.2135C109.368 39.339 106.921 42.6527 102.534 42.6527ZM105.897 40.5066C106.543 39.6578 106.705 38.5984 106.705 37.5641C106.705 35.2315 105.575 30.7806 102.238 30.7806C101.351 30.7806 100.463 31.1257 99.8174 31.6833C98.7679 32.6094 98.5787 33.7759 98.5787 34.9166C98.5787 37.5379 99.8972 41.856 103.154 41.856C104.203 41.856 105.279 41.3534 105.897 40.5066ZM87.9507 42.6527C83.6725 42.6527 81.385 39.3667 81.385 36.3984C81.385 32.9267 84.2645 29.9603 88.3546 29.9603C92.309 29.9603 94.7841 33.0064 94.7841 36.2135C94.7846 39.339 92.3368 42.6527 87.9507 42.6527ZM91.3143 40.5066C91.9598 39.6578 92.1217 38.5984 92.1217 37.5641C92.1217 35.2315 90.9908 30.7806 87.6543 30.7806C86.767 30.7806 85.8787 31.1257 85.2334 31.6833C84.1839 32.6094 83.9958 33.7759 83.9958 34.9166C83.9958 37.5379 85.3136 41.856 88.5704 41.856C89.6199 41.856 90.6957 41.3534 91.3143 40.5066ZM79.3298 42.2372L75.461 43.1164C73.8914 43.3567 72.4854 43.5681 70.9983 43.5681C63.5313 43.5681 60.6921 38.1598 60.6921 33.9237C60.6921 28.7561 64.722 23.962 71.6208 23.962C73.0821 23.962 74.4874 24.1746 75.7586 24.5212C77.7872 25.0808 78.7339 25.7728 79.3294 26.1729L77.0834 28.2774L76.1371 28.4896L76.8132 27.4237C75.8939 26.5453 74.2152 24.9205 71.0245 24.9205C66.7502 24.9205 63.5306 28.1188 63.5306 32.7804C63.5306 37.7874 67.2101 42.5029 73.1059 42.5029C74.8389 42.5029 75.7297 42.1572 76.5418 41.8367V37.5487L72.458 37.7616L74.6211 36.6148H80.3562L79.6536 37.2807C79.4628 37.4413 79.4366 37.4952 79.3826 37.7062C79.3545 37.9465 79.3291 38.7198 79.3291 38.9859V42.2373H79.3298V42.2372Z" fill="#F9F9F9"/>
<path d="M128.05 41.4701C127.157 41.39 126.97 41.231 126.97 40.1908V25.1127C126.975 25.0554 126.979 24.9964 126.984 24.941C127.093 24.009 127.363 23.8492 128.203 23.369H124.333L122.304 24.3283H124.372V24.3402L124.371 24.3306V40.7777C124.371 41.3096 124.264 41.3904 123.641 42.1887H128.429L129.43 41.6042C128.971 41.5491 128.51 41.5233 128.05 41.4701ZM139.057 41.7151C138.762 41.8741 138.467 42.0601 138.172 42.1914C137.284 42.5881 136.371 42.6944 135.564 42.6944C134.706 42.6944 133.362 42.6397 131.991 41.6619C130.085 40.338 129.252 38.0628 129.252 36.0792C129.252 31.979 132.637 29.9684 135.404 29.9684C136.371 29.9684 137.366 30.206 138.172 30.7098C139.514 31.5812 139.863 32.7188 140.05 33.3276L133.739 35.842L131.67 36.0006C132.34 39.3606 134.65 41.3169 137.203 41.3169C138.573 41.3169 139.568 40.8417 140.481 40.3926L139.057 41.7151ZM136.532 33.8298C137.042 33.6453 137.311 33.4859 137.311 33.1158C137.311 32.0584 136.102 30.8407 134.65 30.8407C133.575 30.8407 131.561 31.6613 131.561 34.518C131.561 34.9678 131.615 35.4438 131.643 35.9217L136.532 33.8298ZM141.65 30.1494V31.8951H141.434V30.1494H140.848V29.9684H142.236V30.1494H141.65ZM144.066 31.8951V30.1333H144.056L143.511 31.8951H143.342L142.792 30.1333H142.784V31.8951H142.589V29.9684H142.924L143.422 31.5258H143.429L143.92 29.9684H144.26V31.8951H144.066Z" fill="#F9F9F9"/>
<path d="M66.0648 18.7748H64.7204C64.7204 18.5926 64.593 18.077 64.338 17.2275H62.3974C62.1342 18.0631 62.0025 18.5787 62.0025 18.7748H60.7383C60.7383 18.6673 61.0652 17.7847 61.719 16.1272C62.3727 14.4698 62.6996 13.5567 62.6996 13.3888H64.2876C64.2876 13.5459 64.5836 14.4455 65.176 16.088C65.7684 17.7304 66.0648 18.6257 66.0648 18.7748ZM64.1241 16.4372C63.6451 15.0143 63.4058 14.2449 63.4058 14.1289H63.3386C63.3386 14.2364 63.0907 15.0058 62.5952 16.4372H64.1241ZM71.4812 18.7748H70.4438C70.4438 18.6616 70.0587 18.0647 69.2888 16.9837C68.4825 15.8446 68.023 15.0659 67.9112 14.6466H67.844C67.914 15.2504 67.9492 15.7964 67.9492 16.2848C67.9492 16.966 67.9687 17.7963 68.0078 18.7752H66.9744C67.0162 17.9203 67.0373 16.9814 67.0373 15.9582C67.0373 14.9516 67.0162 14.0951 66.9744 13.3892H68.2217C68.2217 13.5356 68.5674 14.119 69.2591 15.1391C69.9954 16.2228 70.4185 16.9579 70.5276 17.3442H70.5905C70.5233 16.7292 70.4897 16.1777 70.4897 15.6894C70.4897 14.9424 70.4701 14.1752 70.431 13.3892H71.4813C71.4418 14.0732 71.4226 14.9296 71.4226 15.9582C71.4222 16.9945 71.4417 17.9333 71.4812 18.7748ZM77.569 15.8954C77.569 16.6787 77.3141 17.3627 76.8046 17.9472C76.2947 18.5322 75.5807 18.8241 74.6622 18.8241C74.2477 18.8241 73.6764 18.8075 72.9483 18.7744C72.9847 17.9415 73.0031 17.0022 73.0031 15.9574C73.0031 14.9539 72.9847 14.0974 72.9483 13.3884H73.6835C73.8039 13.3884 73.983 13.3842 74.2211 13.3761C74.4589 13.368 74.6145 13.3638 74.6872 13.3638C75.698 13.3638 76.4308 13.6122 76.8863 14.1086C77.3415 14.6049 77.569 15.2003 77.569 15.8954ZM76.4225 16.0733C76.4225 15.5438 76.2657 15.0978 75.9521 14.7347C75.6385 14.3723 75.1595 14.191 74.5155 14.191C74.3951 14.191 74.2301 14.2033 74.0197 14.2283C74.0475 14.7801 74.0615 15.3562 74.0615 15.9574C74.0615 16.6167 74.0756 17.2702 74.1033 17.9183C74.2831 17.954 74.4659 17.972 74.6492 17.9722C75.2514 17.9722 75.6972 17.7878 75.9869 17.4196C76.2767 17.0515 76.4225 16.6028 76.4225 16.0733ZM83.1829 18.7748H81.9395C81.6146 17.7986 81.3655 17.1959 81.1919 16.9671C81.0183 16.738 80.7383 16.6236 80.352 16.6236C80.1893 16.6236 80.034 16.6252 79.8859 16.6279C79.8859 17.3369 79.8984 18.0523 79.9238 18.7748H78.7562C78.7926 17.9418 78.811 17.0026 78.811 15.9578C78.811 14.9543 78.7926 14.0978 78.7562 13.3888H79.4827C79.5668 13.3888 79.7424 13.3846 80.0098 13.3765C80.2773 13.3684 80.5244 13.3641 80.7512 13.3641C82.0365 13.3641 82.6793 13.797 82.6793 14.6631C82.6793 15.3497 82.3126 15.828 81.579 16.0987V16.1607C81.8617 16.2378 82.1096 16.4553 82.3223 16.8119C82.5346 17.1689 82.8216 17.8232 83.1829 18.7748ZM81.6079 14.9688C81.6079 14.4201 81.2493 14.1455 80.5326 14.1455C80.2694 14.1455 80.0368 14.1648 79.8354 14.2033C79.8663 14.6307 79.8815 15.188 79.8815 15.8746C80.0356 15.8804 80.1659 15.8827 80.2722 15.8827C81.1625 15.8831 81.6079 15.5785 81.6079 14.9688ZM89.2039 15.9824C89.2039 16.8289 88.9407 17.5309 88.414 18.0881C87.8873 18.645 87.2363 18.9238 86.4609 18.9238C85.7215 18.9238 85.1025 18.6681 84.6043 18.1563C84.1058 17.6449 83.8567 16.9945 83.8567 16.2061C83.8567 15.3597 84.1198 14.6577 84.6465 14.1004C85.1729 13.5436 85.8239 13.2648 86.5997 13.2648C87.3391 13.2648 87.9577 13.5197 88.4563 14.03C88.9548 14.5402 89.2039 15.1907 89.2039 15.9824ZM88.0449 16.1022C88.0449 15.5257 87.8951 15.0582 87.5956 14.6997C87.2957 14.3412 86.9262 14.1621 86.4867 14.1621C86.0777 14.1621 85.7305 14.3427 85.445 14.7039C85.1596 15.0651 85.0161 15.5215 85.0161 16.0733C85.0161 16.6467 85.1666 17.1135 85.4677 17.4736C85.7687 17.8336 86.1375 18.0135 86.5747 18.0135C86.9833 18.0135 87.3309 17.8321 87.6164 17.4693C87.9018 17.1069 88.0449 16.6509 88.0449 16.1022ZM91.579 18.7748H90.3903C90.4266 17.9199 90.445 16.981 90.445 15.9578C90.445 14.9511 90.4267 14.0947 90.3903 13.3888H91.579C91.5426 14.0839 91.5242 14.94 91.5242 15.9578C91.5242 16.9972 91.5426 17.9364 91.579 18.7748ZM97.6672 15.8954C97.6672 16.6787 97.4122 17.3627 96.9027 17.9472C96.3929 18.5322 95.6788 18.8241 94.7603 18.8241C94.3458 18.8241 93.7746 18.8075 93.0464 18.7744C93.0828 17.9415 93.1012 17.0022 93.1012 15.9574C93.1012 14.9539 93.0829 14.0974 93.0464 13.3884H93.7816C93.902 13.3884 94.0811 13.3842 94.3193 13.3761C94.557 13.368 94.7126 13.3638 94.7854 13.3638C95.7962 13.3638 96.529 13.6122 96.9845 14.1086C97.4396 14.6049 97.6672 15.2003 97.6672 15.8954ZM96.5207 16.0733C96.5207 15.5438 96.3639 15.0978 96.0503 14.7347C95.7367 14.3723 95.2577 14.191 94.6137 14.191C94.4932 14.191 94.3282 14.2033 94.1178 14.2283C94.1456 14.7801 94.1597 15.3562 94.1597 15.9574C94.1597 16.6167 94.1738 17.2702 94.2015 17.9183C94.3812 17.954 94.564 17.972 94.7474 17.9722C95.3495 17.9722 95.7953 17.7878 96.085 17.4196C96.3749 17.0515 96.5207 16.6028 96.5207 16.0733ZM105.744 18.7748H104.4C104.4 18.5926 104.272 18.077 104.017 17.2275H102.076C101.813 18.0631 101.681 18.5787 101.681 18.7748H100.418C100.418 18.6673 100.744 17.7847 101.398 16.1272C102.052 14.4698 102.379 13.5567 102.379 13.3888H103.967C103.967 13.5459 104.263 14.4455 104.855 16.088C105.447 17.7304 105.744 18.6257 105.744 18.7748ZM103.803 16.4372C103.324 15.0143 103.085 14.2449 103.085 14.1289H103.018C103.018 14.2364 102.77 15.0058 102.275 16.4372H103.803ZM110.644 14.799C110.644 15.4583 110.395 15.9451 109.898 16.2593C109.401 16.5736 108.791 16.731 108.069 16.731C107.937 16.731 107.844 16.7283 107.787 16.7229C107.787 17.2417 107.802 17.9253 107.833 18.7748H106.653C106.689 17.978 106.708 17.0387 106.708 15.9578C106.708 14.965 106.689 14.1086 106.653 13.3888H107.384C107.487 13.3888 107.686 13.3846 107.98 13.3765C108.274 13.3684 108.529 13.3641 108.744 13.3641C109.276 13.3641 109.726 13.4827 110.093 13.72C110.459 13.9572 110.644 14.3165 110.644 14.799ZM109.56 15.0266C109.56 14.4366 109.162 14.1413 108.367 14.1413C108.168 14.1413 107.958 14.162 107.737 14.2033C107.768 14.7247 107.783 15.3147 107.783 15.974C107.853 15.9797 107.935 15.9821 108.027 15.9821C109.049 15.9824 109.56 15.664 109.56 15.0266ZM115.682 14.799C115.682 15.4583 115.433 15.9451 114.936 16.2593C114.439 16.5736 113.829 16.731 113.107 16.731C112.975 16.731 112.881 16.7283 112.825 16.7229C112.825 17.2417 112.84 17.9253 112.871 18.7748H111.691C111.727 17.978 111.746 17.0387 111.746 15.9578C111.746 14.965 111.727 14.1086 111.691 13.3888H112.422C112.525 13.3888 112.724 13.3846 113.018 13.3765C113.312 13.3684 113.567 13.3641 113.782 13.3641C114.314 13.3641 114.764 13.4827 115.131 13.72C115.497 13.9572 115.682 14.3165 115.682 14.799ZM114.598 15.0266C114.598 14.4366 114.2 14.1413 113.405 14.1413C113.206 14.1413 112.996 14.162 112.775 14.2033C112.806 14.7247 112.821 15.3147 112.821 15.974C112.891 15.9797 112.973 15.9821 113.065 15.9821C114.087 15.9824 114.598 15.664 114.598 15.0266ZM123.918 15.9824C123.918 16.8289 123.655 17.5309 123.129 18.0881C122.602 18.6454 121.951 18.9238 121.175 18.9238C120.436 18.9238 119.817 18.6681 119.319 18.1563C118.821 17.6449 118.571 16.9945 118.571 16.2061C118.571 15.3597 118.834 14.6577 119.361 14.1004C119.888 13.5432 120.539 13.2648 121.314 13.2648C122.054 13.2648 122.673 13.5197 123.171 14.03C123.669 14.5402 123.918 15.1907 123.918 15.9824ZM122.759 16.1022C122.759 15.5257 122.609 15.0582 122.31 14.6997C122.01 14.3412 121.64 14.1621 121.201 14.1621C120.792 14.1621 120.445 14.3427 120.159 14.7039C119.874 15.0651 119.731 15.5215 119.731 16.0733C119.731 16.6467 119.881 17.1135 120.182 17.4736C120.483 17.8336 120.852 18.0135 121.289 18.0135C121.698 18.0135 122.045 17.8321 122.331 17.4693C122.616 17.1069 122.759 16.6509 122.759 16.1022ZM129.612 18.7748H128.574C128.574 18.6616 128.19 18.0647 127.419 16.9837C126.613 15.8446 126.153 15.0659 126.042 14.6466H125.974C126.044 15.2504 126.08 15.7964 126.08 16.2848C126.08 16.966 126.099 17.7963 126.138 18.7752H125.105C125.147 17.9203 125.168 16.9814 125.168 15.9582C125.168 14.9516 125.147 14.0951 125.105 13.3892H126.352C126.352 13.5356 126.698 14.119 127.39 15.1391C128.126 16.2228 128.549 16.9579 128.658 17.3442H128.721C128.654 16.7292 128.62 16.1777 128.62 15.6894C128.62 14.9424 128.601 14.1752 128.561 13.3892H129.612C129.572 14.0732 129.553 14.9296 129.553 15.9582C129.553 16.9945 129.573 17.9333 129.612 18.7748Z" fill="#F9F9FA"/>
</g>
<defs>
<linearGradient id="paint0_linear_648_1137" x1="26.1719" y1="12.6888" x2="26.1719" y2="56.3215" gradientUnits="userSpaceOnUse">
<stop stop-color="#257CB0"/>
<stop offset="0.286" stop-color="#4A93B5"/>
<stop offset="0.767" stop-color="#78BCBB"/>
<stop offset="1" stop-color="#89CFBD"/>
</linearGradient>
<linearGradient id="paint1_linear_648_1137" x1="15.0019" y1="23.5173" x2="43.3428" y2="23.5173" gradientUnits="userSpaceOnUse">
<stop stop-color="#52C1AD"/>
<stop offset="1" stop-color="#DEE89A"/>
</linearGradient>
<linearGradient id="paint2_linear_648_1137" x1="29.1718" y1="34.5053" x2="29.1718" y2="56.4801" gradientUnits="userSpaceOnUse">
<stop stop-color="#EC413D"/>
<stop offset="0.167" stop-color="#DA4452"/>
<stop offset="0.575" stop-color="#B0487A"/>
<stop offset="0.862" stop-color="#954A92"/>
<stop offset="1" stop-color="#8A4A9D"/>
</linearGradient>
<linearGradient id="paint3_linear_648_1137" x1="45.4955" y1="28.6453" x2="45.4955" y2="40.3642" gradientUnits="userSpaceOnUse">
<stop stop-color="#F58879"/>
<stop offset="0.119" stop-color="#F69079"/>
<stop offset="0.713" stop-color="#FCB877"/>
<stop offset="1" stop-color="#FEC874"/>
</linearGradient>
<clipPath id="clip0_648_1137">
<rect width="200" height="65" fill="white"/>
</clipPath>
</defs>
</svg>
