<svg width="1440" height="1024" viewBox="0 0 1440 1024" fill="none" xmlns="http://www.w3.org/2000/svg">
<rect width="1440" height="1024" fill="url(#paint0_linear_608_2020)"/>
<path d="M0 1024H1002.95C1051.18 963.908 1091.78 895.413 1125.78 822.011C705.211 996.714 300.549 1066.6 0 836V1024Z" fill="url(#paint1_linear_608_2020)"/>
<path fill-rule="evenodd" clip-rule="evenodd" d="M1002.95 1024C1225.29 746.985 1285.39 291.363 1285.42 0H1440V375.673C1384.53 618.921 1270.16 852.149 1164.21 1024H1002.95Z" fill="url(#paint2_linear_608_2020)"/>
<path fill-rule="evenodd" clip-rule="evenodd" d="M1164.21 1024H1002.95C1225.29 746.985 1285.39 291.363 1285.42 0H1440V375.673C1384.53 618.921 1270.16 852.149 1164.21 1024Z" fill="url(#paint3_linear_608_2020)"/>
<path fill-rule="evenodd" clip-rule="evenodd" d="M0 0H1285.42C1285.41 75.7347 1281.35 162.568 1271.43 254.477C937.563 539.909 418.176 888.77 0 883.068V0Z" fill="url(#paint4_linear_608_2020)"/>
<path d="M348.5 666.5C576.1 686.5 977.833 419.833 1082 324C1036.5 82 563.333 294.167 416.5 339C299 439.833 120.9 646.5 348.5 666.5Z" fill="url(#paint5_linear_608_2020)"/>
<defs>
<linearGradient id="paint0_linear_608_2020" x1="0" y1="0" x2="967.242" y2="1360.18" gradientUnits="userSpaceOnUse">
<stop stop-color="#FF7700"/>
<stop offset="1" stop-color="#FF0059"/>
</linearGradient>
<linearGradient id="paint1_linear_608_2020" x1="810" y1="1165" x2="81.5" y2="627" gradientUnits="userSpaceOnUse">
<stop stop-color="#FF7500" stop-opacity="0.37"/>
<stop offset="1" stop-color="white" stop-opacity="0"/>
</linearGradient>
<linearGradient id="paint2_linear_608_2020" x1="1073" y1="-48.5" x2="1366" y2="1005" gradientUnits="userSpaceOnUse">
<stop stop-color="#FF9436" stop-opacity="0.35"/>
<stop offset="1" stop-color="white" stop-opacity="0"/>
</linearGradient>
<linearGradient id="paint3_linear_608_2020" x1="1073" y1="-48.5" x2="1366" y2="1005" gradientUnits="userSpaceOnUse">
<stop stop-color="#FF9436" stop-opacity="0.35"/>
<stop offset="1" stop-color="white" stop-opacity="0"/>
</linearGradient>
<linearGradient id="paint4_linear_608_2020" x1="219.593" y1="-263" x2="731.529" y2="841.988" gradientUnits="userSpaceOnUse">
<stop stop-color="white" stop-opacity="0"/>
<stop offset="1" stop-color="white" stop-opacity="0.51"/>
</linearGradient>
<linearGradient id="paint5_linear_608_2020" x1="540" y1="178" x2="721.5" y2="629" gradientUnits="userSpaceOnUse">
<stop offset="0.62" stop-color="#FF8014" stop-opacity="0"/>
<stop offset="1" stop-color="#FF8013"/>
</linearGradient>
</defs>
</svg>
