<svg width="166" height="29" viewBox="0 0 166 29" fill="none" xmlns="http://www.w3.org/2000/svg">
<path d="M0 29H4L11.6207 16H7.62069L0 29Z" fill="url(#paint0_linear_617_1156)"/>
<path d="M34 29H7L14.6304 16H26.3696L34 29Z" fill="url(#paint1_linear_617_1156)"/>
<path d="M19 3.41176L13.3793 13H9.37931L17 0L19 3.41176Z" fill="url(#paint2_linear_617_1156)"/>
<path d="M24.6087 13H16.3913L20.5 6L24.6087 13Z" fill="#23354D"/>
<path d="M38 24.9587L46.9612 4H47.156L56.1172 24.9587H52.388L46.0706 9.05994L48.4084 7.48389L41.2004 24.9587H38ZM43.6216 17.4932H50.5513L51.6644 20.2305H42.6476L43.6216 17.4932Z" fill="#23354D"/>
<path d="M65.3071 4.8295C66.8471 4.8295 68.1643 5.08756 69.259 5.6037C70.3536 6.11983 71.1885 6.85716 71.7637 7.81569C72.3574 8.77422 72.6542 9.93552 72.6542 11.2996C72.6542 12.0922 72.5243 12.8848 72.2646 13.6775C72.0234 14.4701 71.6338 15.189 71.0957 15.8342C70.5763 16.4793 69.8712 17.0047 68.9807 17.4102C68.1087 17.7973 67.0326 17.9909 65.7524 17.9909H62.8303V24.9587H59.5742V4.8295H65.3071ZM65.7524 14.8664C66.4574 14.8664 67.0511 14.7466 67.5335 14.507C68.0159 14.2673 68.387 13.9632 68.6467 13.5945C68.925 13.2259 69.1198 12.848 69.2311 12.4609C69.361 12.0553 69.426 11.6959 69.426 11.3825C69.426 11.0507 69.3703 10.6913 69.259 10.3042C69.1477 9.89865 68.9621 9.52077 68.7024 9.17054C68.4426 8.80187 68.0808 8.50694 67.617 8.28574C67.1532 8.04611 66.5595 7.92629 65.8359 7.92629H62.8303V14.8664H65.7524Z" fill="#23354D"/>
<path d="M82.3203 4.8295C83.8602 4.8295 85.1775 5.08756 86.2721 5.6037C87.3668 6.11983 88.2017 6.85716 88.7768 7.81569C89.3705 8.77422 89.6674 9.93552 89.6674 11.2996C89.6674 12.0922 89.5375 12.8848 89.2778 13.6775C89.0366 14.4701 88.6469 15.189 88.1089 15.8342C87.5894 16.4793 86.8844 17.0047 85.9938 17.4102C85.1218 17.7973 84.0457 17.9909 82.7656 17.9909H79.8434V24.9587H76.5874V4.8295H82.3203ZM82.7656 14.8664C83.4706 14.8664 84.0643 14.7466 84.5467 14.507C85.0291 14.2673 85.4001 13.9632 85.6599 13.5945C85.9382 13.2259 86.133 12.848 86.2443 12.4609C86.3742 12.0553 86.4391 11.6959 86.4391 11.3825C86.4391 11.0507 86.3834 10.6913 86.2721 10.3042C86.1608 9.89865 85.9753 9.52077 85.7155 9.17054C85.4558 8.80187 85.094 8.50694 84.6302 8.28574C84.1663 8.04611 83.5726 7.92629 82.8491 7.92629H79.8434V14.8664H82.7656Z" fill="#23354D"/>
<path d="M92.3482 14.9217C92.3482 13.5208 92.6172 12.2028 93.1552 10.9678C93.6933 9.73275 94.4354 8.63597 95.3816 7.67744C96.3278 6.71891 97.4225 5.97236 98.6655 5.4378C99.9272 4.8848 101.272 4.6083 102.701 4.6083C104.111 4.6083 105.437 4.8848 106.681 5.4378C107.942 5.97236 109.046 6.71891 109.992 7.67744C110.957 8.63597 111.708 9.73275 112.246 10.9678C112.803 12.2028 113.081 13.5208 113.081 14.9217C113.081 16.3411 112.803 17.6683 112.246 18.9033C111.708 20.1383 110.957 21.2351 109.992 22.1937C109.046 23.1338 107.942 23.8711 106.681 24.4057C105.437 24.9218 104.111 25.1799 102.701 25.1799C101.254 25.1799 99.9086 24.9218 98.6655 24.4057C97.4225 23.8711 96.3278 23.143 95.3816 22.2213C94.4354 21.2812 93.6933 20.1936 93.1552 18.9586C92.6172 17.7052 92.3482 16.3595 92.3482 14.9217ZM95.6877 14.9217C95.6877 15.9171 95.864 16.848 96.2165 17.7144C96.5876 18.5807 97.0978 19.3457 97.7472 20.0093C98.3965 20.6545 99.1479 21.1614 100.001 21.5301C100.855 21.8987 101.782 22.0831 102.784 22.0831C103.749 22.0831 104.649 21.8987 105.484 21.5301C106.337 21.1614 107.079 20.6545 107.71 20.0093C108.341 19.3457 108.833 18.5807 109.185 17.7144C109.556 16.848 109.742 15.9171 109.742 14.9217C109.742 13.9079 109.556 12.9678 109.185 12.1014C108.814 11.2351 108.313 10.4701 107.682 9.80649C107.052 9.14289 106.309 8.62676 105.456 8.25809C104.603 7.88943 103.684 7.70509 102.701 7.70509C101.718 7.70509 100.799 7.88943 99.9457 8.25809C99.0923 8.62676 98.3409 9.14289 97.6915 9.80649C97.0607 10.4701 96.569 11.2443 96.2165 12.1291C95.864 12.9954 95.6877 13.9263 95.6877 14.9217Z" fill="#23354D"/>
<path d="M117.408 4.8295H120.664V21.8619H130.655V24.9587H117.408V4.8295Z" fill="#23354D"/>
<path d="M134.938 4.8295H138.194V21.8619H148.185V24.9587H134.938V4.8295Z" fill="#23354D"/>
<path d="M155.174 18.4333L147.688 4.8295H151.668L157.373 15.6683L156.399 15.7236L162.02 4.8295H166L158.402 18.4333V24.9587H155.174V18.4333Z" fill="#23354D"/>
<defs>
<linearGradient id="paint0_linear_617_1156" x1="0" y1="0" x2="28.637" y2="33.5744" gradientUnits="userSpaceOnUse">
<stop stop-color="#FF7700"/>
<stop offset="1" stop-color="#FF0059"/>
</linearGradient>
<linearGradient id="paint1_linear_617_1156" x1="0" y1="0" x2="28.637" y2="33.5744" gradientUnits="userSpaceOnUse">
<stop stop-color="#FF7700"/>
<stop offset="1" stop-color="#FF0059"/>
</linearGradient>
<linearGradient id="paint2_linear_617_1156" x1="0" y1="0" x2="28.637" y2="33.5744" gradientUnits="userSpaceOnUse">
<stop stop-color="#FF7700"/>
<stop offset="1" stop-color="#FF0059"/>
</linearGradient>
</defs>
</svg>
